<svg xmlns="http://www.w3.org/2000/svg" xmlns:xlink="http://www.w3.org/1999/xlink" version="1.1" x="0px" y="0px" viewBox="0 0 32 40" enable-background="new 0 0 32 32" xml:space="preserve"><path d="M27,4H5C4.4477539,4,4,4.4477539,4,5v22c0,0.5522461,0.4477539,1,1,1h22c0.5522461,0,1-0.4477539,1-1V5  C28,4.4477539,27.5522461,4,27,4z M24.5,9c0,0.2763672-0.2236328,0.5-0.5,0.5S23.5,9.2763672,23.5,9V8.5h-15v15h15V17  c0-0.2763672,0.2236328-0.5,0.5-0.5s0.5,0.2236328,0.5,0.5v7c0,0.2763672-0.2236328,0.5-0.5,0.5H8  c-0.2763672,0-0.5-0.2236328-0.5-0.5V8c0-0.2763672,0.2236328-0.5,0.5-0.5h16c0.2763672,0,0.5,0.2236328,0.5,0.5V9z   M24.1900024,13.7199707l-8.3900146,8C15.6099854,21.9099731,15.3599854,22,15.1099854,22s-0.5-0.0900269-0.6900024-0.2800293  l-3.6099854-3.4399414c-0.4000244-0.3800049-0.4099731-1.0100098-0.0299683-1.4100342  c0.3799438-0.4000244,1.0099487-0.4199829,1.4099731-0.039978l2.9199829,2.789978l7.7000122-7.3399658  c0.4000244-0.3800049,1.0300293-0.3700562,1.4099731,0.0299683C24.5999756,12.710022,24.5900269,13.3400269,24.1900024,13.7199707z"/></svg>