<svg xmlns="http://www.w3.org/2000/svg" version="1.1" viewBox="-5.0 -10.0 110.0 135.0">
 <g>
  <path d="m85.418 33.332h-70.836c-3.4453 0-6.25-2.8047-6.25-6.25v-8.332c0-3.4453 2.8047-6.25 6.25-6.25h70.832c3.4453 0 6.25 2.8047 6.25 6.25v8.332c0 3.4453-2.8047 6.25-6.25 6.25z"/>
  <path d="m85.418 37.5h-70.836c-0.71094 0-1.4102-0.074219-2.082-0.21094v39.793c0 5.7422 4.6719 10.418 10.418 10.418h54.168c5.7422 0 10.418-4.6719 10.418-10.418v-39.793c-0.67188 0.13672-1.3711 0.21094-2.082 0.21094zm-22.918 16.668h-25c-2.3008 0-4.168-1.8633-4.168-4.168 0-2.3008 1.8633-4.168 4.168-4.168h25c2.3008 0 4.168 1.8633 4.168 4.168 0 2.3008-1.8633 4.168-4.168 4.168z"/>
 </g>
</svg>