<svg xmlns="http://www.w3.org/2000/svg" version="1.1" viewBox="-5.0 -10.0 110.0 135.0">
 <g>
  <path d="m44.195 95.664c-0.58594 0-1.1719-0.074218-1.7422-0.21875l-32.281-8.1836c-1.8203-0.45312-3.3867-1.6211-4.3398-3.2383-0.95312-1.5898-1.2227-3.5-0.75781-5.2969l15.395-59.781c0.98438-3.7578 4.8203-6.0195 8.5898-5.0586l32.277 8.1836c1.8242 0.45313 3.3867 1.6211 4.3398 3.2383 0.95312 1.5938 1.2266 3.5 0.75781 5.2969l-15.395 59.781c-0.8125 3.1094-3.625 5.2812-6.8438 5.2773zm-16.887-79.91c-2.2656-0.003906-4.2461 1.5195-4.8203 3.7109l-15.395 59.781c-0.32812 1.2617-0.13672 2.5977 0.53125 3.7148 0.67188 1.1406 1.7734 1.9609 3.0586 2.2812l32.281 8.1836c2.6523 0.67969 5.3594-0.91016 6.0586-3.5586l15.395-59.781c0.32812-1.2578 0.13672-2.5977-0.53125-3.7148-0.67578-1.1406-1.7773-1.9609-3.0625-2.2812l-32.281-8.1836h0.003906c-0.40625-0.10156-0.82031-0.15234-1.2383-0.15234zm38.117 14.594z"/>
  <path d="m42.238 34.277c-1.7109 0-3.3008-0.90234-4.1758-2.375-0.65625-1.0938-0.84375-2.4062-0.52344-3.6445 0.5-1.8945 2.0859-3.3047 4.0273-3.5781 1.9375-0.27344 3.8516 0.64453 4.8555 2.3281 0.65234 1.0938 0.83984 2.4062 0.51953 3.6445-0.55859 2.1367-2.4922 3.625-4.7031 3.625zm-2.6836-5.5h0.003906c-0.18359 0.69922-0.074219 1.4414 0.29297 2.0625 0.57422 0.96094 1.668 1.4805 2.7734 1.3281 1.1055-0.15625 2.0117-0.95703 2.3008-2.0352 0.17969-0.69922 0.074219-1.4453-0.29688-2.0625-0.375-0.63281-0.98828-1.0898-1.6992-1.2695-1.4766-0.375-2.9805 0.50781-3.3711 1.9766z"/>
  <path d="m18.172 80.574c-0.32031 0-0.625-0.14844-0.82422-0.40234-0.19531-0.25391-0.26562-0.58594-0.18359-0.89844l10.418-40.461c0.070313-0.26953 0.24219-0.49609 0.48047-0.63672 0.23438-0.14062 0.51953-0.18359 0.78906-0.11328 0.26563 0.070312 0.49609 0.24219 0.63672 0.48047s0.17969 0.51953 0.10938 0.78906l-10.418 40.461c-0.11719 0.46094-0.53125 0.78125-1.0078 0.78125z"/>
  <path d="m28.66 83.234c-0.32031 0-0.625-0.14844-0.82031-0.40234-0.19922-0.25781-0.26562-0.58594-0.1875-0.89844l1.0078-3.9219h0.003906c0.14453-0.55469 0.71094-0.88672 1.2656-0.74609 0.55469 0.14453 0.89062 0.71094 0.75 1.2656l-1.0078 3.9219c-0.12109 0.46094-0.53516 0.78125-1.0117 0.78125z"/>
  <path d="m30.969 74.277c-0.32422 0-0.625-0.14844-0.82422-0.40234-0.19531-0.25391-0.26562-0.58594-0.18359-0.89844l8.1094-31.504c0.070313-0.26953 0.24219-0.5 0.48047-0.64062s0.52344-0.17969 0.78906-0.11328c0.26953 0.070312 0.49609 0.24219 0.63672 0.48047 0.14063 0.23828 0.18359 0.52344 0.11328 0.79297l-8.1133 31.504c-0.11719 0.46094-0.53516 0.78125-1.0078 0.78125z"/>
  <path d="m39.152 85.895c-0.32422 0-0.625-0.15234-0.82422-0.40625-0.19531-0.25391-0.26562-0.58594-0.18359-0.89844l10.418-40.461c0.066406-0.26562 0.23828-0.49609 0.47656-0.63672 0.23828-0.14063 0.52344-0.17969 0.79297-0.11328 0.26562 0.070313 0.49609 0.24219 0.63672 0.48047s0.17969 0.52344 0.10938 0.78906l-10.418 40.461c-0.11719 0.46094-0.53125 0.78516-1.0078 0.78516z"/>
  <path d="m56.426 98.957c-3.0469 0.003907-5.7539-1.9414-6.7188-4.8281l-0.94922-2.8594c-0.18359-0.54688 0.11328-1.1367 0.66016-1.3164s1.1328 0.11328 1.3164 0.66016l0.94922 2.8594c0.875 2.5977 3.6836 4.0078 6.2891 3.1562l31.66-10.285v-0.003906c1.2578-0.40234 2.3047-1.293 2.8984-2.4727 0.59375-1.1602 0.69531-2.5078 0.28125-3.7461l-19.363-58.633c-0.86719-2.5977-3.668-4.0039-6.2695-3.1562l-12.453 4.043c-0.26562 0.085938-0.55078 0.0625-0.79687-0.0625-0.25-0.125-0.4375-0.34375-0.52344-0.60547-0.082031-0.26562-0.0625-0.55078 0.066406-0.79688 0.125-0.25 0.34766-0.43359 0.60938-0.51953l12.453-4.0391c3.6914-1.2031 7.6641 0.79688 8.8945 4.4844l19.363 58.633c0.58203 1.7734 0.43359 3.7031-0.41406 5.3672-0.84766 1.6602-2.3242 2.918-4.1016 3.4883l-31.66 10.285c-0.70703 0.23047-1.4492 0.34766-2.1914 0.34766z"/>
  <path d="m61.195 88.871c-0.44922 0-0.84766-0.28906-0.98828-0.71484l-3.0078-9.1094c-0.17969-0.54688 0.11719-1.1367 0.66016-1.3164 0.54688-0.17969 1.1367 0.11719 1.3164 0.66016l3.0078 9.1094v0.003906c0.10547 0.31641 0.050781 0.66406-0.14453 0.93359-0.19531 0.27344-0.50781 0.43359-0.84375 0.43359z"/>
  <path d="m71.484 85.527c-0.44922 0-0.84766-0.28906-0.98828-0.71484l-1.2695-3.8438v-0.003906c-0.18359-0.54688 0.11328-1.1328 0.66016-1.3164 0.54688-0.17969 1.1367 0.11719 1.3164 0.66406l1.2695 3.8438c0.10547 0.32031 0.050782 0.66797-0.14453 0.9375-0.19531 0.27344-0.50781 0.43359-0.84375 0.43359z"/>
  <path d="m68.582 76.742c-0.44922 0-0.84766-0.28906-0.98828-0.71484l-5.1602-15.633c-0.17969-0.54688 0.11719-1.1328 0.66016-1.3164 0.54688-0.17969 1.1367 0.11719 1.3164 0.66406l5.1641 15.629c0.10156 0.32031 0.050781 0.66797-0.14844 0.9375-0.19531 0.27344-0.50781 0.43359-0.84375 0.43359z"/>
  <path d="m81.773 82.184c-0.44922 0-0.84766-0.28906-0.98828-0.71875l-13.105-39.684c-0.17969-0.54688 0.11719-1.1367 0.66406-1.3164 0.54297-0.17969 1.1328 0.11719 1.3125 0.66406l13.105 39.684c0.10547 0.32031 0.050781 0.66797-0.14453 0.9375-0.19531 0.26953-0.51172 0.43359-0.84375 0.43359z"/>
  <path d="m42.242 30.496c-0.42188 0-0.80078-0.25391-0.96484-0.64062-0.16016-0.39062-0.070313-0.83984 0.22656-1.1367l27.371-27.371c0.41016-0.40234 1.0664-0.40234 1.4688 0.003906 0.40625 0.40625 0.41016 1.0625 0.007812 1.4688l-27.375 27.371c-0.19531 0.19531-0.45703 0.30469-0.73437 0.30469z"/>
  <path d="m33.684 17.176c-0.35547 0.003907-0.68359-0.17969-0.875-0.47656l-9.0117-14.047c-0.30859-0.48438-0.16797-1.1289 0.31641-1.4414s1.125-0.16797 1.4375 0.3125l9.0117 14.051c0.20312 0.32031 0.21875 0.72656 0.035156 1.0625-0.18359 0.33203-0.53125 0.53906-0.91406 0.53906z"/>
 </g>
</svg>