<svg xmlns="http://www.w3.org/2000/svg" version="1.1" viewBox="-5.0 -10.0 110.0 135.0">
 <path d="m98.301 11.277-9.5781-9.5781c-1.0898-1.082-2.5664-1.6953-4.1055-1.6992h-48.043c-3 0.0039062-5.4336 2.4375-5.4375 5.4375v11.652h-1.6289c-1.4883 0.003906-2.7461 1.0977-2.9609 2.5703l-0.80078 5.6094c-1.6797 0.49219-3.3008 1.1562-4.8438 1.9844l-4.6602-3.5c-1.1953-0.88281-2.8555-0.76562-3.9102 0.27734l-5.1016 5.1016c-1.0469 1.0547-1.1641 2.7188-0.27344 3.9102l3.4102 4.5469-0.003907-0.003906c-0.83984 1.5352-1.5234 3.1523-2.0352 4.8242l-5.7539 0.81641c-1.4727 0.21094-2.5703 1.4727-2.5742 2.9609v7.2109c0.0078125 1.4883 1.1016 2.7461 2.5703 2.9609l5.6094 0.80078c0.49219 1.6797 1.1602 3.3047 1.9844 4.8477l-3.5 4.6562c-0.89062 1.1914-0.77344 2.8555 0.27734 3.9102l5.1016 5.1016h-0.003907c1.0547 1.0469 2.7188 1.1641 3.9102 0.27344l4.5508-3.4062c1.5312 0.84375 3.1445 1.5273 4.8164 2.0391l0.81641 5.7578h0.003907c0.21484 1.4727 1.4766 2.5625 2.9648 2.5703h2.043l-0.003906 11.652c0.003906 3 2.4336 5.4336 5.4336 5.4375h57.988c3-0.003906 5.4336-2.4375 5.4375-5.4375v-79.18c-0.003906-1.5391-0.61719-3.0156-1.6992-4.1055zm-65.602 68.508c-0.10938 0.007813-0.21484 0.03125-0.32031 0.066406l-3.1484 0.050782-1.1094-7.7852-1-0.26563c-2.082-0.55078-4.0781-1.3984-5.9219-2.5156l-0.89844-0.55078-6.0391 4.6797-5.0977-4.9258 4.7305-6.3008-0.52344-0.89844c-1.0898-1.8594-1.9102-3.8672-2.4375-5.957l-0.25-1.0234-7.5586-0.96094-0.11719-7.0781 7.7852-1.1094 0.26562-1c0.55078-2.0859 1.3984-4.082 2.5156-5.9297l0.55078-0.89844-4.6836-6.0391 4.9258-5.0898 6.3008 4.7383 0.89844-0.52344v-0.003906c1.8594-1.0977 3.8633-1.918 5.957-2.4414l1.0234-0.25 0.95703-7.5586 2.9531-0.050782c0.078125 0.023438 0.16016 0.042969 0.24219 0.050782 0.09375-0.007813 0.1875-0.027344 0.28125-0.058594l3.6055-0.058594 1.1133 7.7852 1 0.26563c2.0898 0.55078 4.0859 1.3984 5.9297 2.5156l0.89844 0.55078 6.0391-4.6797 5.0898 4.9258-4.7344 6.3008 0.52344 0.89453 0.003907-0.003906c1.0938 1.8594 1.918 3.8633 2.4414 5.957l0.25 1.0234 7.5586 1.082 0.11719 6.9609-7.7852 1.1094-0.26562 1c-0.55078 2.0859-1.3984 4.0859-2.5195 5.9297l-0.55078 0.89844 4.6836 6.0391-4.9297 5.0938-6.3008-4.7305-0.89844 0.51953c-1.8594 1.0938-3.8672 1.918-5.9609 2.4453l-1.0234 0.25391-0.95703 7.5547-3.3438 0.054688 0.003906-0.003906c-0.089844-0.027344-0.17969-0.042969-0.26953-0.054688zm64.176 14.777c0 1.2773-1.0352 2.3125-2.3125 2.3125h-57.988c-1.2773 0-2.3125-1.0352-2.3125-2.3125v-11.652h2.0508c1.4844-0.007812 2.7422-1.0977 2.9609-2.5703l0.80078-5.6055c1.6758-0.49609 3.3008-1.1641 4.8438-1.9883l4.6562 3.5c1.1953 0.89062 2.8594 0.77344 3.9141-0.27734l5.1055-5.1055c1.043-1.0547 1.1602-2.7148 0.26953-3.9062l-3.4141-4.5469c0.84375-1.5312 1.5273-3.1484 2.043-4.8203l5.7578-0.81641h-0.003906c1.4766-0.21484 2.5703-1.4727 2.5742-2.9609v-7.2109c-0.007812-1.4883-1.0977-2.7461-2.5703-2.9609l-5.6094-0.80078c-0.49219-1.6797-1.1602-3.3047-1.9883-4.8477l3.5-4.6562c0.88672-1.1914 0.76953-2.8555-0.27344-3.9102l-5.1016-5.1016c-1.0547-1.0469-2.7188-1.1641-3.9102-0.27344l-4.543 3.4102v-0.003907c-1.5352-0.84375-3.1484-1.5273-4.8242-2.0391l-0.81641-5.7539c-0.21094-1.4727-1.4727-2.5703-2.9609-2.5742h-2.4609v-11.652c0-1.2773 1.0352-2.3125 2.3125-2.3125h44.875v11.992c0 1.9336 1.5664 3.5 3.5 3.5h11.926zm0-79.066-11.93-0.003906c-0.20703 0-0.37109-0.16797-0.37109-0.375v-11.992h0.046875-0.003906c0.71094 0 1.3945 0.28516 1.8984 0.78516l9.5781 9.5781-0.003906-0.003906c0.5 0.50391 0.78516 1.1875 0.78516 1.8984zm-48.109 34.504c0-4.2031-1.6719-8.2383-4.6445-11.211-2.9727-2.9727-7.0078-4.6445-11.211-4.6445s-8.2383 1.6719-11.211 4.6445c-2.9727 2.9727-4.6445 7.0078-4.6445 11.211s1.6719 8.2383 4.6445 11.211c2.9727 2.9727 7.0078 4.6445 11.211 4.6445 4.2031-0.007813 8.2344-1.6797 11.207-4.6484 2.9688-2.9727 4.6406-7.0039 4.6484-11.207zm-15.855 12.73c-5.1484 0-9.7891-3.1016-11.762-7.8594-1.9688-4.7578-0.87891-10.23 2.7617-13.871s9.1133-4.7305 13.871-2.7617c4.7578 1.9727 7.8594 6.6133 7.8594 11.762-0.007813 7.0273-5.7031 12.723-12.73 12.73zm27.09-39.355h26.145c0.42188-0.007812 0.82812 0.14844 1.1328 0.44531 0.30078 0.29297 0.46875 0.69531 0.46875 1.1172s-0.16797 0.82422-0.46875 1.1211c-0.30469 0.29297-0.71094 0.45312-1.1328 0.44141h-26.145c-0.42188 0.011719-0.82812-0.14844-1.1289-0.44141-0.30469-0.29688-0.47266-0.69922-0.47266-1.1211s0.16797-0.82422 0.47266-1.1172c0.30078-0.29687 0.70703-0.45312 1.1289-0.44531zm27.707 11.762c0 0.41406-0.16406 0.8125-0.45703 1.1055-0.29297 0.29297-0.69141 0.45703-1.1055 0.45703h-24.301c-0.42188 0.011719-0.82812-0.14844-1.1289-0.44141-0.30078-0.29687-0.47266-0.69922-0.47266-1.1211s0.17187-0.82422 0.47266-1.1172c0.30078-0.29688 0.70703-0.45703 1.1289-0.44531h24.301c0.41406 0 0.8125 0.16406 1.1055 0.45703s0.45703 0.69141 0.45703 1.1055zm0 10.199v0.003906c0 0.41406-0.16406 0.80859-0.45703 1.1016-0.29297 0.29297-0.69141 0.46094-1.1055 0.45703h-16.781c-0.84766-0.019532-1.5234-0.71484-1.5234-1.5625 0-0.84766 0.67578-1.5391 1.5234-1.5625h16.781c0.41406 0 0.8125 0.16406 1.1055 0.45703s0.45703 0.69141 0.45703 1.1055zm0 10.199v0.003906c0 0.41406-0.16406 0.8125-0.45703 1.1055s-0.69141 0.45703-1.1055 0.45703h-16.074c-0.84766-0.023437-1.5234-0.71484-1.5234-1.5625 0-0.84766 0.67578-1.543 1.5234-1.5625h16.074c0.41406 0 0.8125 0.16406 1.1055 0.45703 0.29297 0.28906 0.45703 0.6875 0.45703 1.1016zm0 10.199v0.003906c0 0.41406-0.16406 0.8125-0.45703 1.1055s-0.69141 0.45703-1.1055 0.45703h-24.301c-0.42188 0.011719-0.82812-0.14844-1.1289-0.44531-0.30078-0.29297-0.47266-0.69531-0.47266-1.1172s0.17187-0.82422 0.47266-1.1211c0.30078-0.29297 0.70703-0.45313 1.1289-0.44141h24.301c0.86328 0 1.5625 0.69531 1.5625 1.5586zm0 10.199v0.003906c0 0.41406-0.16406 0.8125-0.45703 1.1055s-0.69141 0.45703-1.1055 0.45703h-27.281c-0.84766-0.019531-1.5234-0.71484-1.5234-1.5625s0.67578-1.543 1.5234-1.5625h27.281c0.86328 0 1.5625 0.69531 1.5625 1.5586zm0 10.199v0.003907c0 0.41406-0.16406 0.8125-0.45703 1.1055-0.29297 0.29297-0.69141 0.45703-1.1055 0.45703h-41.145c-0.84766-0.019531-1.5234-0.71484-1.5234-1.5625 0-0.84766 0.67578-1.5391 1.5234-1.5625h41.148c0.85937 0.003906 1.5586 0.69922 1.5586 1.5586z"/>
</svg>